<?xml version="1.0" standalone="no"?>
<!DOCTYPE svg PUBLIC "-//W3C//DTD SVG 20010904//EN"
 "http://www.w3.org/TR/2001/REC-SVG-20010904/DTD/svg10.dtd">
<svg version="1.0" xmlns="http://www.w3.org/2000/svg"
 width="32.000000pt" height="32.000000pt" viewBox="0 0 32.000000 32.000000"
 preserveAspectRatio="xMidYMid meet">
<metadata>
Created by potrace 1.16, written by Peter Selinger 2001-2019
</metadata>
<g transform="translate(0.000000,32.000000) scale(0.100000,-0.100000)"
fill="#000000" stroke="none">
<path d="M72 300 c-18 -11 -41 -34 -52 -52 -27 -45 -27 -131 0 -176 30 -48 75
-72 140 -72 100 0 160 60 160 160 0 65 -24 110 -72 140 -45 27 -131 27 -176 0z
m156 -20 c68 -42 91 -124 52 -188 -57 -94 -183 -94 -240 0 -71 117 71 259 188
188z"/>
<path d="M120 235 c0 -33 -2 -35 -35 -35 -34 0 -35 -1 -35 -40 0 -39 1 -40 35
-40 33 0 35 -2 35 -34 0 -32 2 -34 40 -38 l40 -4 0 38 c0 38 0 38 40 38 l40 0
0 40 0 40 -40 0 c-39 0 -40 1 -40 35 0 34 -1 35 -40 35 -39 0 -40 -1 -40 -35z"/>
</g>
</svg>
